<?xml version="1.0" encoding="UTF-8"?>
<svg id="Lag_1" data-name="Lag 1" xmlns="http://www.w3.org/2000/svg" viewBox="0 0 130.96 96.49">
  <defs>
    <style>
      .cls-1 {
        fill: #606c38;
      }
    </style>
  </defs>
  <ellipse class="cls-1" cx="66.23" cy="29.57" rx="19.86" ry="21.05"/>
  <path class="cls-1" d="m53.36,10.33s-15.55,10.16-6.79,29.4c0,0-9.07,7.33-20.27,1.49-5.34-2.79-8.87-7.64-10.71-13.15-1.5-4.47-1.9-10.58,1.22-16.31C23,.37,41.02-6.61,53.36,10.33Z"/>
  <path class="cls-1" d="m28.78,86.66s-1.87-33.88,21.84-39.89c0,0-3.2-3.07-3.54-4.73,0,0-13.64,9.01-26.19-1.41,0,0-24.21,14.9-20.51,45.8l28.4.23Z"/>
  <path class="cls-1" d="m31.77,96.48h68.66s3.4-39.38-20.33-47.69c0,0-12.07,11.09-27.86-.15,0,0-25.21,8.55-20.48,47.84Z"/>
  <path class="cls-1" d="m102.65,86.26s1.84-33.8-21.48-39.79c0,0,3.15-3.07,3.48-4.72,0,0,13.42,8.99,25.77-1.41,0,0,23.82,14.86,20.17,45.69l-27.94.23Z"/>
  <path class="cls-1" d="m78.93,10.09s15.68,13.51,6.71,29.85c0,0,8.43,6.59,19.16.77,5.11-2.77,8.22-7.66,9.99-13.15,1.43-4.45,2.13-10.35-.85-16.05-5.93-11.33-23.18-18.27-35-1.42Z"/>
</svg>