<?xml version="1.0" encoding="UTF-8"?>
<svg id="Lag_1" data-name="Lag 1" xmlns="http://www.w3.org/2000/svg" viewBox="0 0 141.84 141.84">
  <defs>
    <style>
      .cls-1, .cls-2 {
        fill: #606c38;
      }

      .cls-3 {
        stroke-width: 10px;
      }

      .cls-3, .cls-4, .cls-2, .cls-5 {
        stroke-miterlimit: 10;
      }

      .cls-3, .cls-4, .cls-5 {
        fill: #fff;
        stroke: #606c38;
      }

      .cls-4 {
        stroke-width: 2px;
      }

      .cls-2 {
        stroke: #fff;
        stroke-width: .5px;
      }

      .cls-5 {
        stroke-width: 8px;
      }
    </style>
  </defs>
  <line class="cls-3" x1="29.48" y1="24.74" x2="75.96" y2="24.74"/>
  <line class="cls-3" x1="16.85" y1="40.76" x2="88.46" y2="40.64"/>
  <line class="cls-5" x1="24.26" y1="111.36" x2="24.5" y2="45.1"/>
  <line class="cls-5" x1="64.12" y1="111.3" x2="64.37" y2="45.04"/>
  <line class="cls-5" x1="40.22" y1="111.42" x2="40.46" y2="45.16"/>
  <line class="cls-5" x1="80.2" y1="45.5" x2="79.96" y2="74.29"/>
  <path class="cls-2" d="m115.77,60.2l-22.5.75-.11,15.17s3.46-5.84,22.54-6.7l.07-9.22Z"/>
  <path class="cls-1" d="m101.98,122.07s27-1.14,30.26-22.71,2.89-25.99,2.89-25.99l-21.28.54c-5.17.13-10.28,1.43-14.76,4.03-7.67,4.46-15.89,13.8-12.06,33.02,0,0-7.41,16.53-5.27,19.68l7.41.25s3.75-22.71,20.38-36.43c.91-.75,2.03-1.26,3.2-1.39,1.48-.16,3.23.19,3.71,2.57.37,1.79-.21,3.65-1.4,5.04-3.91,4.6-14.85,17.96-13.09,21.39Z"/>
  <line class="cls-5" x1="20.45" y1="58.79" x2="83.92" y2="58.75"/>
  <line class="cls-5" x1="20.48" y1="75.97" x2="83.89" y2="75.89"/>
  <line class="cls-5" x1="79.85" y1="78.99" x2="79.66" y2="111.33"/>
  <line class="cls-5" x1="20.85" y1="92.46" x2="83.65" y2="92.45"/>
  <line class="cls-4" x1="26.94" y1="110.41" x2="37.06" y2="110.41"/>
  <line class="cls-4" x1="66.6" y1="110.31" x2="76.73" y2="110.31"/>
</svg>