<?xml version="1.0" encoding="UTF-8"?>
<svg id="Lag_1" data-name="Lag 1" xmlns="http://www.w3.org/2000/svg" viewBox="0 0 141.84 141.84">
  <defs>
    <style>
      .cls-1, .cls-2 {
        fill: #606c38;
      }

      .cls-3 {
        stroke-width: 10px;
      }

      .cls-3, .cls-4, .cls-2, .cls-5 {
        stroke-miterlimit: 10;
      }

      .cls-3, .cls-4, .cls-5 {
        fill: #fff;
        stroke: #606c38;
      }

      .cls-4 {
        stroke-width: 2px;
      }

      .cls-2 {
        stroke: #fff;
        stroke-width: .5px;
      }

      .cls-5 {
        stroke-width: 8px;
      }
    </style>
  </defs>
  <line class="cls-3" x1="19.02" y1="13.42" x2="71.91" y2="13.42"/>
  <line class="cls-3" x1="4.65" y1="32.18" x2="86.13" y2="32.04"/>
  <line class="cls-5" x1="13.28" y1="114.96" x2="13.27" y2="36.84"/>
  <line class="cls-5" x1="59.21" y1="114.72" x2="59.2" y2="36.6"/>
  <line class="cls-5" x1="31.67" y1="114.97" x2="31.66" y2="36.85"/>
  <line class="cls-5" x1="77.45" y1="37.07" x2="77.3" y2="71.01"/>
  <path class="cls-2" d="m117.21,54.94l-25.6.88-.13,17.77s3.93-6.84,25.65-7.84l.08-10.8Z"/>
  <path class="cls-1" d="m101.52,127.38s30.72-1.33,34.44-26.59c3.72-25.26,3.29-30.43,3.29-30.43l-24.22.63c-5.89.15-11.7,1.67-16.79,4.72-8.73,5.23-18.08,16.16-13.72,38.67,0,0-8.43,19.35-6,23.04l8.43.3s4.26-26.59,23.19-42.66c1.04-.88,2.31-1.48,3.65-1.63,1.68-.19,3.67.22,4.23,3.01.42,2.1-.24,4.27-1.59,5.9-4.45,5.39-16.9,21.03-14.89,25.04Z"/>
  <line class="cls-5" x1="9.92" y1="52.99" x2="81.42" y2="52.68"/>
  <line class="cls-5" x1="9.58" y1="73.24" x2="81.25" y2="72.88"/>
  <line class="cls-5" x1="77.19" y1="76.56" x2="77.12" y2="114.68"/>
  <line class="cls-5" x1="9.26" y1="92.7" x2="80.75" y2="92.41"/>
  <line class="cls-4" x1="16.49" y1="113.95" x2="28.01" y2="113.95"/>
  <line class="cls-4" x1="61.63" y1="113.68" x2="73.88" y2="113.68"/>
</svg>