<?xml version="1.0" encoding="UTF-8"?>
<svg id="Lag_1" data-name="Lag 1" xmlns="http://www.w3.org/2000/svg" viewBox="0 0 136.58 101.99">
  <defs>
    <style>
      .cls-1 {
        stroke-width: 6px;
      }

      .cls-1, .cls-2 {
        fill: none;
        stroke: #606c38;
        stroke-miterlimit: 10;
      }

      .cls-2 {
        stroke-width: 5px;
      }
    </style>
  </defs>
  <ellipse class="cls-2" cx="67.78" cy="32.07" rx="19.86" ry="21.05"/>
  <path class="cls-2" d="m54.91,12.78s-15.1,13.78-6.42,29.26c0,0-7.84,7-18.43,1.19-5.05-2.77-8.8-7.49-10.55-12.98-1.41-4.45-2.11-10.35.84-16.05,5.85-11.33,22.88-18.27,34.55-1.42Z"/>
  <path class="cls-1" d="m29.98,87.32s-1.75-33.21,20.47-39.1c0,0-3-3.01-3.32-4.64,0,0-12.79,8.83-24.55-1.38,0,0-22.69,14.6-19.22,44.9l26.61.23Z"/>
  <path class="cls-1" d="m33.32,98.98h68.66s3.4-39.38-20.33-47.69c0,0-12.07,11.09-27.86-.15,0,0-25.21,8.55-20.48,47.84Z"/>
  <path class="cls-1" d="m105.26,87.56s1.84-33.8-21.48-39.79c0,0,3.15-3.07,3.48-4.72,0,0,13.42,8.99,25.77-1.41,0,0,23.82,14.86,20.17,45.69l-27.94.23Z"/>
  <path class="cls-2" d="m80.48,12.59s15.1,13.78,6.42,29.26c0,0,7.84,7,18.43,1.19,5.05-2.77,8.8-7.49,10.55-12.98,1.41-4.45,2.11-10.35-.84-16.05-5.85-11.33-22.88-18.27-34.55-1.42Z"/>
</svg>